<svg viewBox="0 -66 512 512" xmlns="http://www.w3.org/2000/svg"><path d="m442.234375 360h-.269531c-5.523438 0-10 4.476562-10 10s4.476562 10 10 10h.269531c5.523437 0 10-4.476562 10-10s-4.476563-10-10-10zm0 0"/><path d="m474.984375 267.761719c6.792969-7.984375 10.910156-18.339844 10.910156-29.652344 0-25.183594-20.363281-45.671875-45.394531-45.671875-.144531 0-.289062.011719-.433594.011719-6.65625-9.589844-15.925781-16.84375-26.523437-20.976563 6.757812-7.976562 10.851562-18.304687 10.851562-29.582031 0-25.183594-20.363281-45.671875-45.398437-45.671875-.140625 0-.28125.011719-.425782.011719-6.660156-9.589844-15.929687-16.84375-26.527343-20.976563 6.757812-7.976562 10.851562-18.304687 10.851562-29.582031 0-25.183594-20.363281-45.671875-45.394531-45.671875s-45.394531 20.488281-45.394531 45.671875c0 11.277344 4.089843 21.605469 10.847656 29.582031-10.597656 4.132813-19.863281 11.386719-26.523437 20.976563-.144532 0-.285157-.007813-.429688-.007813s-.285156.007813-.429688.007813c-6.660156-9.589844-15.929687-16.84375-26.527343-20.976563 6.757812-7.976562 10.851562-18.304687 10.851562-29.582031 0-25.183594-20.363281-45.671875-45.394531-45.671875s-45.394531 20.488281-45.394531 45.671875c0 11.277344 4.089843 21.605469 10.847656 29.582031-10.597656 4.132813-19.867187 11.386719-26.523437 20.976563-.144532 0-.285157-.007813-.429688-.007813-2.429688 0-4.882812.199219-7.28125.589844-5.453125.894531-9.148438 6.035156-8.253906 11.484375.890625 5.449219 6.023437 9.144531 11.480468 8.253906 1.339844-.21875 2.703126-.328125 4.054688-.328125 14.003906 0 25.394531 11.515625 25.394531 25.671875 0 14.152344-11.390625 25.671875-25.394531 25.671875-10.277344 0-19.480469-6.199218-23.4375-15.785156-2.105469-5.105469-7.957031-7.535156-13.058594-5.429688-5.105468 2.109376-7.535156 7.957032-5.429687 13.058594 1.847656 4.472656 4.339843 8.527344 7.335937 12.082032-10.578125 4.136718-19.832031 11.382812-26.480468 20.957031-.144532 0-.285157-.007813-.433594-.007813-25.027344 0-45.394532 20.488282-45.394532 45.671875 0 11.308594 4.117188 21.664063 10.910157 29.652344-21.636719 8.460937-37.011719 29.523437-37.011719 54.125v28.109375c0 16.542969 13.457031 30 30 30h372c5.523438 0 10-4.476562 10-10s-4.476562-10-10-10h-13v-38.109375c0-21.011719 17.097656-38.109375 38.109375-38.109375h26.78125c21.011719 0 38.109375 17.097656 38.109375 38.109375v28.109375c0 5.515625-4.488281 10-10 10h-11.035156c-5.523438 0-10 4.476562-10 10s4.476562 10 10 10h11.035156c16.542969 0 30-13.457031 30-30v-28.109375c0-24.601563-15.375-45.664063-37.015625-54.128906zm-9.089844-29.652344c0 14.15625-11.390625 25.671875-25.394531 25.671875s-25.394531-11.515625-25.394531-25.671875 11.390625-25.671875 25.394531-25.671875 25.394531 11.515625 25.394531 25.671875zm-61.5-96.214844c0 14.152344-11.390625 25.667969-25.394531 25.667969s-25.394531-11.515625-25.394531-25.667969c0-14.15625 11.390625-25.671875 25.394531-25.671875s25.394531 11.515625 25.394531 25.671875zm-86.894531-121.894531c14.003906 0 25.394531 11.515625 25.394531 25.671875 0 14.152344-11.390625 25.671875-25.394531 25.671875s-25.394531-11.519531-25.394531-25.671875c0-14.15625 11.390625-25.671875 25.394531-25.671875zm-13.761719 71.34375h27.523438c9.785156 0 19.007812 3.867188 25.925781 10.507812-14.042969 7.773438-23.582031 22.804688-23.582031 40.042969 0 11.277344 4.089843 21.605469 10.847656 29.582031-10.597656 4.132813-19.863281 11.382813-26.523437 20.972657-.144532 0-.285157-.011719-.429688-.011719s-.289062.011719-.433594.011719c-6.65625-9.589844-15.925781-16.839844-26.523437-20.972657 6.757812-7.976562 10.851562-18.304687 10.851562-29.582031 0-17.238281-9.542969-32.269531-23.585937-40.042969 6.921875-6.640624 16.140625-10.507812 25.929687-10.507812zm13.761719 172.4375c-14.003906 0-25.394531-11.515625-25.394531-25.671875s11.390625-25.671875 25.394531-25.671875 25.394531 11.515625 25.394531 25.671875-11.390625 25.671875-25.394531 25.671875zm-61.5 25.554688c-6.566406-9.671876-15.976562-17.257813-27.015625-21.574219 6.792969-7.984375 10.910156-18.339844 10.910156-29.652344 0-17.230469-9.539062-32.265625-23.582031-40.039063 6.917969-6.640624 16.140625-10.503906 25.925781-10.503906h27.523438c9.785156 0 19.007812 3.863282 25.925781 10.503906-14.042969 7.773438-23.582031 22.804688-23.582031 40.039063 0 11.3125 4.117187 21.667969 10.910156 29.652344-11.039063 4.316406-20.449219 11.902343-27.015625 21.574219zm-86.894531-51.226563c0-14.15625 11.390625-25.671875 25.394531-25.671875s25.394531 11.515625 25.394531 25.671875-11.390625 25.671875-25.394531 25.671875-25.394531-11.515625-25.394531-25.671875zm86.894531-121.886719c14.003906 0 25.394531 11.515625 25.394531 25.671875 0 14.152344-11.390625 25.667969-25.394531 25.667969s-25.394531-11.515625-25.394531-25.671875c0-14.152344 11.390625-25.667969 25.394531-25.667969zm-61.5-96.222656c14.003906 0 25.394531 11.515625 25.394531 25.671875 0 14.152344-11.390625 25.671875-25.394531 25.671875s-25.394531-11.519531-25.394531-25.671875c0-14.15625 11.390625-25.671875 25.394531-25.671875zm-39.691406 81.851562c6.921875-6.640624 16.140625-10.507812 25.929687-10.507812h27.523438c9.789062 0 19.007812 3.867188 25.929687 10.507812-14.046875 7.773438-23.585937 22.804688-23.585937 40.042969 0 11.277344 4.089843 21.605469 10.847656 29.582031-10.59375 4.132813-19.863281 11.382813-26.523437 20.972657-.144532 0-.285157-.011719-.429688-.011719s-.289062.011719-.433594.011719c-6.65625-9.589844-15.925781-16.839844-26.523437-20.972657 6.757812-7.976562 10.851562-18.304687 10.851562-29.582031 0-17.238281-9.539062-32.269531-23.585937-40.042969zm-35.570313 85.710938h27.523438c9.785156 0 19.007812 3.867188 25.925781 10.507812-14.042969 7.773438-23.585938 22.804688-23.585938 40.039063 0 11.3125 4.117188 21.667969 10.910157 29.652344-11.035157 4.316406-20.445313 11.902343-27.015625 21.574219-6.566406-9.675782-15.976563-17.257813-27.011719-21.574219 6.792969-7.984375 10.910156-18.339844 10.910156-29.652344 0-17.234375-9.542969-32.265625-23.585937-40.039063 6.921875-6.640624 16.144531-10.507812 25.929687-10.507812zm-47.738281 24.875c14.003906 0 25.394531 11.515625 25.394531 25.671875s-11.390625 25.671875-25.394531 25.671875-25.394531-11.515625-25.394531-25.671875 11.390625-25.671875 25.394531-25.671875zm-51.5 137.5625v-28.109375c0-21.011719 17.097656-38.109375 38.109375-38.109375h26.78125c21.011719 0 38.109375 17.097656 38.109375 38.109375v38.109375h-93c-5.515625 0-10-4.484375-10-10zm123-28.109375c0-21.011719 17.097656-38.109375 38.109375-38.109375h26.78125c21.011719 0 38.109375 17.097656 38.109375 38.109375v38.109375h-103zm123 0c0-21.011719 17.097656-38.109375 38.109375-38.109375h26.78125c21.011719 0 38.109375 17.097656 38.109375 38.109375v38.109375h-103zm113-32.554687c-6.566406-9.671876-15.976562-17.257813-27.015625-21.574219 6.792969-7.984375 10.910156-18.339844 10.910156-29.652344 0-17.230469-9.539062-32.265625-23.582031-40.039063 6.917969-6.640624 16.140625-10.503906 25.925781-10.503906h27.523438c9.785156 0 19.007812 3.863282 25.925781 10.503906-14.042969 7.773438-23.582031 22.804688-23.582031 40.039063 0 11.3125 4.117187 21.667969 10.910156 29.652344-11.039063 4.316406-20.449219 11.902343-27.015625 21.574219zm0 0"/><path d="m96.464844 137.957031c1.191406.472657 2.425781.691407 3.636718.691407 3.992188 0 7.777344-2.414063 9.339844-6.339844l.0625-.15625c2.003906-5.132813-.539062-10.871094-5.664062-12.894532-5.125-2.023437-10.9375.527344-12.976563 5.648438l-.0625.15625c-2.003906 5.132812.539063 10.871094 5.664063 12.894531zm0 0"/></svg>