<?xml version="1.0" encoding="UTF-8"?>
<svg width="375px" height="487px" viewBox="0 0 375 487" version="1.1" xmlns="http://www.w3.org/2000/svg" xmlns:xlink="http://www.w3.org/1999/xlink">
    <!-- Generator: Sketch 54.1 (76490) - https://sketchapp.com -->
    <title>Untitled</title>
    <desc>Created with Sketch.</desc>
    <g id="Page-1" stroke="none" stroke-width="1" fill="none" fill-rule="evenodd">
        <g id="padlock" fill="#000000" fill-rule="nonzero">
            <path d="M319.685913,76.2402651 L267.617647,101 L259.4586,101 C243.416901,78.004231 216.928709,62.833 187.053,62.833 C138.278,62.833 98.534,103.27 98.534,152.175 L98.534,196.563 L182.606,196.563 L191.501,196.563 L213,196.563 L213,197 L351.842937,197 C364.439416,199.600987 374.106,213.500128 374.106,230.272 L374.106,452.904 C374.106,471.51 362.183,486.733 347.567,486.733 L26.539,486.733 C11.922,486.733 -1.42108547e-14,471.51 -1.42108547e-14,452.904 L-1.42108547e-14,230.272 C-1.42108547e-14,211.645 11.922,196.563 26.538,196.563 L36.023,196.563 L36.023,152.175 C36.023,70.076 101.173,1.494 182.606,0.03 C184.83,-0.01 189.276,-0.01 191.501,0.03 C246.885841,1.02573145 294.739612,31.2050711 319.685913,76.2402651 Z M217.129,341.362 C224.606,334.002 228.959,323.825 228.961,312.567 C228.961,291.233 212.47,272.901 191.502,272.054 C189.28,271.964 184.829,271.964 182.607,272.054 C161.639,272.901 145.148,291.233 145.148,312.567 C145.148,323.825 149.501,334.002 156.978,341.362 L156.978,408.633 C156.978,416.336 163.427,422.855 171.137,422.855 L202.971,422.855 C210.68,422.855 217.129,416.336 217.129,408.633 L217.129,341.362 Z" id="Shape"></path>
        </g>
    </g>
</svg>