<?xml version="1.0" encoding="iso-8859-1"?>
<!-- Generator: Adobe Illustrator 19.0.0, SVG Export Plug-In . SVG Version: 6.00 Build 0)  -->
<svg version="1.1" id="Capa_1" xmlns="http://www.w3.org/2000/svg" xmlns:xlink="http://www.w3.org/1999/xlink" x="0px" y="0px"
	 viewBox="0 0 512 512" style="enable-background:new 0 0 512 512;" xml:space="preserve">
<g>
	<g>
		<path d="M432,0H80C35.888,0,0,35.888,0,80v352c0,44.112,35.888,80,80,80h352c44.112,0,80-35.888,80-80V80
			C512,35.888,476.112,0,432,0z M496,432c0,35.288-28.712,64-64,64H80c-35.288,0-64-28.712-64-64V80c0-35.288,28.712-64,64-64h352
			c35.288,0,64,28.712,64,64V432z"/>
	</g>
</g>
<g>
	<g>
		<path d="M224,56H80c-8.824,0-16,7.176-16,16v368c0,8.824,7.176,16,16,16h144c8.824,0,16-7.176,16-16V72
			C240,63.176,232.824,56,224,56z M224,440l-144,0.008V72h144V440z"/>
	</g>
</g>
<g>
	<g>
		<path d="M432,56H288c-8.824,0-16,7.176-16,16v240c0,8.824,7.176,16,16,16h144c8.824,0,16-7.176,16-16V72
			C448,63.176,440.824,56,432,56z M432,312l-144,0.008V72h144V312z"/>
	</g>
</g>
<g>
</g>
<g>
</g>
<g>
</g>
<g>
</g>
<g>
</g>
<g>
</g>
<g>
</g>
<g>
</g>
<g>
</g>
<g>
</g>
<g>
</g>
<g>
</g>
<g>
</g>
<g>
</g>
<g>
</g>
</svg>
